<mxfile host="app.diagrams.net" modified="2024-05-17T13:07:48.587Z" agent="Mozilla/5.0 (Windows NT 10.0; Win64; x64) AppleWebKit/537.36 (KHTML, like Gecko) Chrome/124.0.0.0 Safari/537.36" etag="pg4GO6d5aBZrTMgD7Bn6" version="24.4.3" type="device">
  <diagram name="Trang-1" id="pNmahJ-CERv9YVik3To4">
    <mxGraphModel dx="1118" dy="561" grid="1" gridSize="10" guides="1" tooltips="1" connect="1" arrows="1" fold="1" page="1" pageScale="1" pageWidth="827" pageHeight="1169" math="0" shadow="0">
      <root>
        <mxCell id="0" />
        <mxCell id="1" parent="0" />
        <mxCell id="9lyXBOC_qkQqnVOgrEnQ-1" value="Người dùng" style="shape=umlActor;verticalLabelPosition=bottom;verticalAlign=top;html=1;outlineConnect=0;fontFamily=Times New Roman;fontSize=14;" parent="1" vertex="1">
          <mxGeometry x="60" y="50" width="30" height="60" as="geometry" />
        </mxCell>
        <mxCell id="9lyXBOC_qkQqnVOgrEnQ-5" value="Controller" style="rounded=0;whiteSpace=wrap;html=1;fontFamily=Times New Roman;fontSize=14;" parent="1" vertex="1">
          <mxGeometry x="220" y="50" width="120" height="60" as="geometry" />
        </mxCell>
        <mxCell id="9lyXBOC_qkQqnVOgrEnQ-6" value="Service" style="rounded=0;whiteSpace=wrap;html=1;fontFamily=Times New Roman;fontSize=14;" parent="1" vertex="1">
          <mxGeometry x="440" y="50" width="120" height="60" as="geometry" />
        </mxCell>
        <mxCell id="9lyXBOC_qkQqnVOgrEnQ-7" value="DB" style="rounded=0;whiteSpace=wrap;html=1;fontFamily=Times New Roman;fontSize=14;" parent="1" vertex="1">
          <mxGeometry x="640" y="50" width="120" height="60" as="geometry" />
        </mxCell>
        <mxCell id="9lyXBOC_qkQqnVOgrEnQ-8" value="" style="rounded=0;whiteSpace=wrap;html=1;fontFamily=Times New Roman;fontSize=14;" parent="1" vertex="1">
          <mxGeometry x="70" y="140" width="10" height="700" as="geometry" />
        </mxCell>
        <mxCell id="9lyXBOC_qkQqnVOgrEnQ-9" value="" style="endArrow=none;dashed=1;html=1;rounded=0;entryX=0.5;entryY=1;entryDx=0;entryDy=0;fontFamily=Times New Roman;fontSize=14;" parent="1" source="9lyXBOC_qkQqnVOgrEnQ-14" target="9lyXBOC_qkQqnVOgrEnQ-5" edge="1">
          <mxGeometry width="50" height="50" relative="1" as="geometry">
            <mxPoint x="280" y="831.3912963867188" as="sourcePoint" />
            <mxPoint x="490" y="170" as="targetPoint" />
          </mxGeometry>
        </mxCell>
        <mxCell id="9lyXBOC_qkQqnVOgrEnQ-10" value="" style="endArrow=none;dashed=1;html=1;rounded=0;entryX=0.5;entryY=1;entryDx=0;entryDy=0;fontFamily=Times New Roman;fontSize=14;" parent="1" source="9lyXBOC_qkQqnVOgrEnQ-29" edge="1">
          <mxGeometry width="50" height="50" relative="1" as="geometry">
            <mxPoint x="499.58000000000004" y="831.3912963867188" as="sourcePoint" />
            <mxPoint x="499.58000000000004" y="110" as="targetPoint" />
          </mxGeometry>
        </mxCell>
        <mxCell id="9lyXBOC_qkQqnVOgrEnQ-11" value="" style="endArrow=none;dashed=1;html=1;rounded=0;entryX=0.5;entryY=1;entryDx=0;entryDy=0;fontFamily=Times New Roman;fontSize=14;" parent="1" source="9lyXBOC_qkQqnVOgrEnQ-25" edge="1">
          <mxGeometry width="50" height="50" relative="1" as="geometry">
            <mxPoint x="700" y="831.3912963867188" as="sourcePoint" />
            <mxPoint x="700" y="110" as="targetPoint" />
          </mxGeometry>
        </mxCell>
        <mxCell id="9lyXBOC_qkQqnVOgrEnQ-12" value="" style="endArrow=classic;html=1;rounded=0;fontFamily=Times New Roman;fontSize=14;exitX=1.131;exitY=0.084;exitDx=0;exitDy=0;exitPerimeter=0;" parent="1" source="9lyXBOC_qkQqnVOgrEnQ-8" edge="1">
          <mxGeometry width="50" height="50" relative="1" as="geometry">
            <mxPoint x="100" y="510" as="sourcePoint" />
            <mxPoint x="280" y="200" as="targetPoint" />
          </mxGeometry>
        </mxCell>
        <mxCell id="9lyXBOC_qkQqnVOgrEnQ-13" value="1. Thông tin đăng nhập" style="text;html=1;strokeColor=none;fillColor=none;align=center;verticalAlign=middle;whiteSpace=wrap;rounded=0;fontFamily=Times New Roman;fontSize=14;" parent="1" vertex="1">
          <mxGeometry x="100" y="170" width="140" height="30" as="geometry" />
        </mxCell>
        <mxCell id="9lyXBOC_qkQqnVOgrEnQ-15" value="" style="endArrow=none;dashed=1;html=1;rounded=0;entryX=0.5;entryY=1;entryDx=0;entryDy=0;fontFamily=Times New Roman;fontSize=14;" parent="1" source="9lyXBOC_qkQqnVOgrEnQ-38" target="9lyXBOC_qkQqnVOgrEnQ-14" edge="1">
          <mxGeometry width="50" height="50" relative="1" as="geometry">
            <mxPoint x="280" y="831.3912963867188" as="sourcePoint" />
            <mxPoint x="280" y="110" as="targetPoint" />
          </mxGeometry>
        </mxCell>
        <mxCell id="9lyXBOC_qkQqnVOgrEnQ-14" value="" style="rounded=0;whiteSpace=wrap;html=1;fontFamily=Times New Roman;fontSize=14;" parent="1" vertex="1">
          <mxGeometry x="275" y="200" width="10" height="160" as="geometry" />
        </mxCell>
        <mxCell id="9lyXBOC_qkQqnVOgrEnQ-16" value="" style="endArrow=classic;html=1;rounded=0;exitX=1;exitY=1;exitDx=0;exitDy=0;fontFamily=Times New Roman;fontSize=14;" parent="1" edge="1">
          <mxGeometry width="50" height="50" relative="1" as="geometry">
            <mxPoint x="285" y="359.17" as="sourcePoint" />
            <mxPoint x="500" y="360" as="targetPoint" />
          </mxGeometry>
        </mxCell>
        <mxCell id="9lyXBOC_qkQqnVOgrEnQ-17" value="3. Thông tin đăng nhập" style="text;html=1;strokeColor=none;fillColor=none;align=center;verticalAlign=middle;whiteSpace=wrap;rounded=0;fontFamily=Times New Roman;fontSize=14;" parent="1" vertex="1">
          <mxGeometry x="310" y="330" width="140" height="30" as="geometry" />
        </mxCell>
        <mxCell id="9lyXBOC_qkQqnVOgrEnQ-18" value="" style="endArrow=classic;html=1;rounded=0;exitX=0.995;exitY=0.095;exitDx=0;exitDy=0;exitPerimeter=0;fontFamily=Times New Roman;fontSize=14;" parent="1" source="9lyXBOC_qkQqnVOgrEnQ-14" edge="1">
          <mxGeometry width="50" height="50" relative="1" as="geometry">
            <mxPoint x="290" y="230" as="sourcePoint" />
            <mxPoint x="285" y="300" as="targetPoint" />
            <Array as="points">
              <mxPoint x="340" y="215" />
              <mxPoint x="340" y="300" />
            </Array>
          </mxGeometry>
        </mxCell>
        <mxCell id="9lyXBOC_qkQqnVOgrEnQ-19" value="4. Mã hóa dữ liệu" style="text;html=1;strokeColor=none;fillColor=none;align=center;verticalAlign=middle;whiteSpace=wrap;rounded=0;fontFamily=Times New Roman;fontSize=14;" parent="1" vertex="1">
          <mxGeometry x="570" y="370" width="60" height="90" as="geometry" />
        </mxCell>
        <mxCell id="9lyXBOC_qkQqnVOgrEnQ-20" value="" style="rounded=0;whiteSpace=wrap;html=1;fontFamily=Times New Roman;fontSize=14;" parent="1" vertex="1">
          <mxGeometry x="495" y="361" width="10" height="160" as="geometry" />
        </mxCell>
        <mxCell id="9lyXBOC_qkQqnVOgrEnQ-21" value="" style="endArrow=classic;html=1;rounded=0;exitX=0.995;exitY=0.095;exitDx=0;exitDy=0;exitPerimeter=0;fontFamily=Times New Roman;fontSize=14;" parent="1" source="9lyXBOC_qkQqnVOgrEnQ-20" edge="1">
          <mxGeometry width="50" height="50" relative="1" as="geometry">
            <mxPoint x="510" y="391" as="sourcePoint" />
            <mxPoint x="505" y="461" as="targetPoint" />
            <Array as="points">
              <mxPoint x="560" y="376" />
              <mxPoint x="560" y="461" />
            </Array>
          </mxGeometry>
        </mxCell>
        <mxCell id="9lyXBOC_qkQqnVOgrEnQ-22" value="2. Kiểm tra&lt;br style=&quot;font-size: 14px;&quot;&gt;định dạng&lt;br style=&quot;font-size: 14px;&quot;&gt;dữ liệu" style="text;html=1;strokeColor=none;fillColor=none;align=center;verticalAlign=middle;whiteSpace=wrap;rounded=0;fontFamily=Times New Roman;fontSize=14;" parent="1" vertex="1">
          <mxGeometry x="350" y="210" width="60" height="90" as="geometry" />
        </mxCell>
        <mxCell id="9lyXBOC_qkQqnVOgrEnQ-23" value="" style="endArrow=classic;html=1;rounded=0;exitX=1;exitY=1;exitDx=0;exitDy=0;fontFamily=Times New Roman;fontSize=14;" parent="1" edge="1">
          <mxGeometry width="50" height="50" relative="1" as="geometry">
            <mxPoint x="495" y="520.1700000000001" as="sourcePoint" />
            <mxPoint x="700" y="520" as="targetPoint" />
          </mxGeometry>
        </mxCell>
        <mxCell id="9lyXBOC_qkQqnVOgrEnQ-24" value="5. Kiểm tra đăng nhập" style="text;html=1;strokeColor=none;fillColor=none;align=center;verticalAlign=middle;whiteSpace=wrap;rounded=0;fontFamily=Times New Roman;fontSize=14;" parent="1" vertex="1">
          <mxGeometry x="520" y="491" width="140" height="30" as="geometry" />
        </mxCell>
        <mxCell id="9lyXBOC_qkQqnVOgrEnQ-26" value="" style="endArrow=none;dashed=1;html=1;rounded=0;entryX=0.5;entryY=1;entryDx=0;entryDy=0;fontFamily=Times New Roman;fontSize=14;" parent="1" target="9lyXBOC_qkQqnVOgrEnQ-25" edge="1">
          <mxGeometry width="50" height="50" relative="1" as="geometry">
            <mxPoint x="700" y="831.3912963867188" as="sourcePoint" />
            <mxPoint x="700" y="110" as="targetPoint" />
          </mxGeometry>
        </mxCell>
        <mxCell id="9lyXBOC_qkQqnVOgrEnQ-25" value="" style="rounded=0;whiteSpace=wrap;html=1;fontFamily=Times New Roman;fontSize=14;" parent="1" vertex="1">
          <mxGeometry x="695" y="521" width="10" height="249" as="geometry" />
        </mxCell>
        <mxCell id="9lyXBOC_qkQqnVOgrEnQ-27" value="6. Xác nhận đăng nhập" style="text;html=1;strokeColor=none;fillColor=none;align=center;verticalAlign=middle;whiteSpace=wrap;rounded=0;fontFamily=Times New Roman;fontSize=14;" parent="1" vertex="1">
          <mxGeometry x="750" y="530" width="60" height="90" as="geometry" />
        </mxCell>
        <mxCell id="9lyXBOC_qkQqnVOgrEnQ-28" value="" style="endArrow=classic;html=1;rounded=0;exitX=0.995;exitY=0.095;exitDx=0;exitDy=0;exitPerimeter=0;fontFamily=Times New Roman;fontSize=14;" parent="1" edge="1">
          <mxGeometry width="50" height="50" relative="1" as="geometry">
            <mxPoint x="705" y="536" as="sourcePoint" />
            <mxPoint x="705" y="621" as="targetPoint" />
            <Array as="points">
              <mxPoint x="740" y="536" />
              <mxPoint x="740" y="620" />
            </Array>
          </mxGeometry>
        </mxCell>
        <mxCell id="9lyXBOC_qkQqnVOgrEnQ-30" value="" style="endArrow=none;dashed=1;html=1;rounded=0;entryX=0.5;entryY=1;entryDx=0;entryDy=0;fontFamily=Times New Roman;fontSize=14;" parent="1" target="9lyXBOC_qkQqnVOgrEnQ-29" edge="1">
          <mxGeometry width="50" height="50" relative="1" as="geometry">
            <mxPoint x="499.58000000000004" y="831.3912963867188" as="sourcePoint" />
            <mxPoint x="499.58000000000004" y="110" as="targetPoint" />
          </mxGeometry>
        </mxCell>
        <mxCell id="9lyXBOC_qkQqnVOgrEnQ-29" value="" style="rounded=0;whiteSpace=wrap;html=1;fontFamily=Times New Roman;fontSize=14;" parent="1" vertex="1">
          <mxGeometry x="495" y="610" width="10" height="190" as="geometry" />
        </mxCell>
        <mxCell id="9lyXBOC_qkQqnVOgrEnQ-31" value="" style="endArrow=classic;html=1;rounded=0;dashed=1;exitX=-0.187;exitY=0.579;exitDx=0;exitDy=0;entryX=1;entryY=0;entryDx=0;entryDy=0;exitPerimeter=0;fontFamily=Times New Roman;fontSize=14;" parent="1" target="9lyXBOC_qkQqnVOgrEnQ-38" edge="1">
          <mxGeometry width="50" height="50" relative="1" as="geometry">
            <mxPoint x="495.0000000000001" y="640.7710000000001" as="sourcePoint" />
            <mxPoint x="306.71000000000015" y="640.5000000000001" as="targetPoint" />
          </mxGeometry>
        </mxCell>
        <mxCell id="9lyXBOC_qkQqnVOgrEnQ-32" value="" style="endArrow=classic;html=1;rounded=0;dashed=1;exitX=-0.187;exitY=0.579;exitDx=0;exitDy=0;exitPerimeter=0;entryX=1.025;entryY=0.565;entryDx=0;entryDy=0;entryPerimeter=0;fontFamily=Times New Roman;fontSize=14;" parent="1" edge="1">
          <mxGeometry width="50" height="50" relative="1" as="geometry">
            <mxPoint x="695" y="769" as="sourcePoint" />
            <mxPoint x="505.25" y="769.3999999999999" as="targetPoint" />
          </mxGeometry>
        </mxCell>
        <mxCell id="9lyXBOC_qkQqnVOgrEnQ-33" value="7.1.2 Đăng nhập thành công" style="text;html=1;strokeColor=none;fillColor=none;align=center;verticalAlign=middle;whiteSpace=wrap;rounded=0;fontFamily=Times New Roman;fontSize=14;" parent="1" vertex="1">
          <mxGeometry x="330" y="610.5" width="160" height="30" as="geometry" />
        </mxCell>
        <mxCell id="9lyXBOC_qkQqnVOgrEnQ-34" value="7.2 Thông không tin hợp lệ" style="text;html=1;strokeColor=none;fillColor=none;align=center;verticalAlign=middle;whiteSpace=wrap;rounded=0;fontFamily=Times New Roman;fontSize=14;" parent="1" vertex="1">
          <mxGeometry x="520" y="749" width="160" height="20" as="geometry" />
        </mxCell>
        <mxCell id="9lyXBOC_qkQqnVOgrEnQ-36" value="" style="endArrow=classic;html=1;rounded=0;dashed=1;exitX=-0.187;exitY=0.579;exitDx=0;exitDy=0;entryX=0.786;entryY=0.155;entryDx=0;entryDy=0;entryPerimeter=0;exitPerimeter=0;fontFamily=Times New Roman;fontSize=14;" parent="1" target="9lyXBOC_qkQqnVOgrEnQ-29" edge="1">
          <mxGeometry width="50" height="50" relative="1" as="geometry">
            <mxPoint x="703" y="640" as="sourcePoint" />
            <mxPoint x="515" y="640" as="targetPoint" />
          </mxGeometry>
        </mxCell>
        <mxCell id="9lyXBOC_qkQqnVOgrEnQ-37" value="7.1 Thông tin hợp lệ" style="text;html=1;strokeColor=none;fillColor=none;align=center;verticalAlign=middle;whiteSpace=wrap;rounded=0;fontFamily=Times New Roman;fontSize=14;" parent="1" vertex="1">
          <mxGeometry x="550" y="610.5" width="140" height="30" as="geometry" />
        </mxCell>
        <mxCell id="9lyXBOC_qkQqnVOgrEnQ-39" value="" style="endArrow=none;dashed=1;html=1;rounded=0;entryX=0.5;entryY=1;entryDx=0;entryDy=0;fontFamily=Times New Roman;fontSize=14;" parent="1" target="9lyXBOC_qkQqnVOgrEnQ-38" edge="1">
          <mxGeometry width="50" height="50" relative="1" as="geometry">
            <mxPoint x="280" y="870" as="sourcePoint" />
            <mxPoint x="280" y="360" as="targetPoint" />
          </mxGeometry>
        </mxCell>
        <mxCell id="9lyXBOC_qkQqnVOgrEnQ-38" value="" style="rounded=0;whiteSpace=wrap;html=1;fontFamily=Times New Roman;fontSize=14;" parent="1" vertex="1">
          <mxGeometry x="275" y="640.5" width="10" height="79.5" as="geometry" />
        </mxCell>
        <mxCell id="9lyXBOC_qkQqnVOgrEnQ-40" value="7.1.3 Chuyển màn hình" style="text;html=1;strokeColor=none;fillColor=none;align=center;verticalAlign=middle;whiteSpace=wrap;rounded=0;fontFamily=Times New Roman;fontSize=14;" parent="1" vertex="1">
          <mxGeometry x="330" y="640.5" width="130" height="90" as="geometry" />
        </mxCell>
        <mxCell id="9lyXBOC_qkQqnVOgrEnQ-41" value="" style="endArrow=classic;html=1;rounded=0;exitX=0.995;exitY=0.095;exitDx=0;exitDy=0;exitPerimeter=0;fontFamily=Times New Roman;fontSize=14;entryX=1.015;entryY=0.879;entryDx=0;entryDy=0;entryPerimeter=0;" parent="1" target="9lyXBOC_qkQqnVOgrEnQ-38" edge="1">
          <mxGeometry width="50" height="50" relative="1" as="geometry">
            <mxPoint x="285" y="650.5" as="sourcePoint" />
            <mxPoint x="285" y="735.5" as="targetPoint" />
            <Array as="points">
              <mxPoint x="340" y="650.5" />
              <mxPoint x="340" y="710" />
            </Array>
          </mxGeometry>
        </mxCell>
        <mxCell id="9lyXBOC_qkQqnVOgrEnQ-42" value="" style="endArrow=classic;html=1;rounded=0;dashed=1;exitX=-0.187;exitY=0.579;exitDx=0;exitDy=0;exitPerimeter=0;fontFamily=Times New Roman;fontSize=14;" parent="1" edge="1">
          <mxGeometry width="50" height="50" relative="1" as="geometry">
            <mxPoint x="275.0000000000001" y="719.5010000000001" as="sourcePoint" />
            <mxPoint x="80" y="720" as="targetPoint" />
          </mxGeometry>
        </mxCell>
        <mxCell id="9lyXBOC_qkQqnVOgrEnQ-43" value="7.1.4 Thông báo thành công" style="text;html=1;strokeColor=none;fillColor=none;align=center;verticalAlign=middle;whiteSpace=wrap;rounded=0;fontFamily=Times New Roman;fontSize=14;" parent="1" vertex="1">
          <mxGeometry x="110" y="689.23" width="160" height="30" as="geometry" />
        </mxCell>
        <mxCell id="9lyXBOC_qkQqnVOgrEnQ-44" value="" style="endArrow=classic;html=1;rounded=0;dashed=1;exitX=-0.187;exitY=0.579;exitDx=0;exitDy=0;entryX=1;entryY=0;entryDx=0;entryDy=0;exitPerimeter=0;fontFamily=Times New Roman;fontSize=14;" parent="1" edge="1">
          <mxGeometry width="50" height="50" relative="1" as="geometry">
            <mxPoint x="495.0000000000001" y="768.5010000000001" as="sourcePoint" />
            <mxPoint x="285" y="768.73" as="targetPoint" />
          </mxGeometry>
        </mxCell>
        <mxCell id="9lyXBOC_qkQqnVOgrEnQ-45" value="7.2.1 Đăng nhập không thành công" style="text;html=1;strokeColor=none;fillColor=none;align=center;verticalAlign=middle;whiteSpace=wrap;rounded=0;fontFamily=Times New Roman;fontSize=14;" parent="1" vertex="1">
          <mxGeometry x="293" y="738.23" width="200" height="30" as="geometry" />
        </mxCell>
        <mxCell id="9lyXBOC_qkQqnVOgrEnQ-47" value="" style="endArrow=none;dashed=1;html=1;rounded=0;entryX=0.5;entryY=1;entryDx=0;entryDy=0;fontFamily=Times New Roman;fontSize=14;" parent="1" target="9lyXBOC_qkQqnVOgrEnQ-46" edge="1">
          <mxGeometry width="50" height="50" relative="1" as="geometry">
            <mxPoint x="280" y="831.3912963867188" as="sourcePoint" />
            <mxPoint x="280" y="720" as="targetPoint" />
          </mxGeometry>
        </mxCell>
        <mxCell id="9lyXBOC_qkQqnVOgrEnQ-46" value="" style="rounded=0;whiteSpace=wrap;html=1;fontFamily=Times New Roman;fontSize=14;" parent="1" vertex="1">
          <mxGeometry x="275" y="768.23" width="10" height="41.77" as="geometry" />
        </mxCell>
        <mxCell id="9lyXBOC_qkQqnVOgrEnQ-49" value="" style="endArrow=classic;html=1;rounded=0;dashed=1;exitX=-0.187;exitY=0.579;exitDx=0;exitDy=0;exitPerimeter=0;fontFamily=Times New Roman;fontSize=14;" parent="1" edge="1">
          <mxGeometry width="50" height="50" relative="1" as="geometry">
            <mxPoint x="275.0000000000001" y="809.5010000000001" as="sourcePoint" />
            <mxPoint x="80" y="810" as="targetPoint" />
          </mxGeometry>
        </mxCell>
        <mxCell id="9lyXBOC_qkQqnVOgrEnQ-50" value="7.2.2 Thông báo thành công" style="text;html=1;strokeColor=none;fillColor=none;align=center;verticalAlign=middle;whiteSpace=wrap;rounded=0;fontFamily=Times New Roman;fontSize=14;" parent="1" vertex="1">
          <mxGeometry x="110" y="779.23" width="160" height="30" as="geometry" />
        </mxCell>
      </root>
    </mxGraphModel>
  </diagram>
</mxfile>
